<svg width="170" height="80" viewBox="0 0 85 40" fill="none" xmlns="http://www.w3.org/2000/svg">
  <title>Veil</title>
  <g transform="translate(0,2) scale(0.6)">
    <rect x="20" y="20" width="32" height="32" rx="8" fill="#1C1A17"/>
    <rect x="14" y="14" width="32" height="32" rx="8" fill="#2BBF7E" opacity="0.45"/>
    <rect x="8"  y="8"  width="32" height="32" rx="8" fill="#2BBF7E"/>
  </g>
  <path
    d="M47.708 28.94 41.264 11.06H43.778L49.25 26.78H48.758L54.212 11.06H56.744L50.3 28.94Z M64.094 29.228Q62.222 29.228 60.749 28.34Q59.276 27.452 58.436 25.91Q57.596 24.368 57.596 22.436Q57.596 20.486 58.427 18.977Q59.258 17.468 60.683 16.598Q62.108 15.728 63.89 15.728Q65.324 15.728 66.443 16.238Q67.562 16.748 68.345 17.627Q69.128 18.506 69.542 19.616Q69.956 20.726 69.956 21.932Q69.956 22.208 69.929 22.526Q69.902 22.844 69.842 23.144H59.234V21.224H68.558L67.484 22.076Q67.706 20.828 67.253 19.844Q66.8 18.86 65.915 18.284Q65.03 17.708 63.89 17.708Q62.756 17.708 61.823 18.29Q60.89 18.872 60.374 19.931Q59.858 20.99 59.966 22.46Q59.852 23.888 60.401 24.953Q60.95 26.018 61.937 26.603Q62.924 27.188 64.106 27.188Q65.408 27.188 66.299 26.588Q67.19 25.988 67.736 25.064L69.608 26.018Q69.224 26.906 68.423 27.635Q67.622 28.364 66.521 28.796Q65.42 29.228 64.094 29.228Z M72.26 28.94V16.016H74.51V28.94ZM72.26 13.94V11.06H74.51V13.94Z M77.348 28.94V10.772H79.598V28.94Z"
    fill="#1C1A17"
  />
</svg>
